<svg width="30" height="30" viewBox="0 0 23 23" fill="#fff" xmlns="http://www.w3.org/2000/svg">
<path fill-rule="evenodd" clip-rule="evenodd" d="M6.27273 2.09091C3.96317 2.09091 2.09091 3.96317 2.09091 6.27273V16.7273C2.09091 19.0368 3.96317 20.9091 6.27273 20.9091H16.7273C19.0368 20.9091 20.9091 19.0368 20.9091 16.7273V6.27273C20.9091 3.96317 19.0368 2.09091 16.7273 2.09091H6.27273ZM0 6.27273C0 2.8084 2.8084 0 6.27273 0H16.7273C20.1916 0 23 2.8084 23 6.27273V16.7273C23 20.1916 20.1916 23 16.7273 23H6.27273C2.8084 23 0 20.1916 0 16.7273V6.27273Z" fill="#fff"/>
<path fill-rule="evenodd" clip-rule="evenodd" d="M12.0057 8.35213C11.3531 8.25537 10.6867 8.36683 10.1011 8.67066C9.51556 8.9745 9.04072 9.45523 8.74413 10.0445C8.44754 10.6338 8.3443 11.3015 8.44911 11.9528C8.55391 12.6042 8.86142 13.2058 9.32789 13.6723C9.79437 14.1388 10.396 14.4463 11.0474 14.5511C11.6987 14.6559 12.3665 14.5527 12.9557 14.2561C13.545 13.9595 14.0257 13.4846 14.3295 12.8991C14.6334 12.3135 14.7448 11.6471 14.6481 10.9945C14.5494 10.3289 14.2392 9.71265 13.7634 9.23683C13.2876 8.76101 12.6713 8.45084 12.0057 8.35213ZM9.13811 6.81472C10.114 6.30833 11.2248 6.12256 12.3124 6.28384C13.4218 6.44835 14.4488 6.9653 15.2419 7.75833C16.0349 8.55137 16.5519 9.57843 16.7164 10.6878C16.8776 11.7754 16.6919 12.8862 16.1855 13.8621C15.6791 14.838 14.8779 15.6294 13.8958 16.1238C12.9137 16.6181 11.8007 16.7901 10.7152 16.6155C9.62966 16.4408 8.62685 15.9283 7.8494 15.1508C7.07194 14.3734 6.55943 13.3706 6.38475 12.285C6.21008 11.1995 6.38214 10.0865 6.87646 9.10444C7.37077 8.12234 8.16218 7.32112 9.13811 6.81472Z" fill="#fff"/>
</svg>
